<?xml version="1.0" standalone="no"?>
<!DOCTYPE svg PUBLIC "-//W3C//DTD SVG 20010904//EN"
 "http://www.w3.org/TR/2001/REC-SVG-20010904/DTD/svg10.dtd">
<svg version="1.0" xmlns="http://www.w3.org/2000/svg"
 width="458.000000pt" height="458.000000pt" viewBox="0 0 458.000000 458.000000"
 preserveAspectRatio="xMidYMid meet">

<g transform="translate(0.000000,458.000000) scale(0.100000,-0.100000)"
fill="#000000" stroke="none">
<path d="M2285 2290 l2290 -2290 3 802 c1 442 0 819 -3 838 -5 30 -197 226
-1443 1473 -847 848 -1450 1445 -1469 1453 -27 12 -171 14 -850 14 l-818 0
2290 -2290z m-840 1960 l79 -79 -24 -26 -24 -25 -51 50 c-28 27 -55 50 -60 50
-5 0 -19 -10 -32 -22 l-23 -22 50 -51 50 -51 -25 -24 -25 -24 -50 49 -50 49
-48 -47 -48 -47 -27 27 -27 28 122 122 c68 68 125 123 128 123 3 0 41 -36 85
-80z m105 -248 c39 -28 63 -86 55 -129 -9 -48 -60 -99 -108 -108 -75 -14 -152
51 -152 130 0 105 121 168 205 107z m176 -198 c-3 -8 7 -15 24 -19 17 -4 39
-18 51 -33 19 -25 19 -27 3 -39 -25 -18 -44 -16 -70 8 -20 19 -27 20 -52 10
-16 -7 -49 -32 -73 -57 l-43 -44 -28 27 -28 27 87 88 87 88 23 -22 c13 -12 21
-28 19 -34z m244 -68 c0 -6 -32 -42 -70 -81 l-71 -71 63 4 c59 4 65 2 92 -26
l28 -30 -48 -7 c-27 -3 -56 -7 -64 -8 -9 -1 -18 -20 -23 -47 -5 -25 -13 -62
-18 -84 l-10 -39 -34 33 c-30 29 -32 35 -24 63 5 18 9 42 9 55 0 20 -4 22 -22
16 -13 -3 -31 -13 -41 -22 -16 -15 -20 -14 -45 11 l-27 27 130 130 129 130 23
-22 c13 -12 23 -26 23 -32z m206 -383 c-3 -8 2 -13 13 -13 34 0 71 -39 71 -74
0 -30 3 -33 32 -33 22 0 38 -8 56 -28 37 -43 25 -77 -58 -160 l-69 -69 -25 23
-25 24 55 60 c37 40 54 66 52 81 -6 39 -36 29 -98 -30 l-61 -58 -26 26 -26 27
57 62 c60 64 67 92 26 97 -19 2 -38 -10 -80 -53 l-54 -55 -28 27 -28 27 87 88
87 88 23 -22 c13 -12 21 -28 19 -35z m322 -300 c66 -41 77 -123 22 -177 l-30
-30 -55 54 c-56 56 -72 60 -61 15 5 -18 15 -27 35 -31 27 -6 40 -26 41 -61 0
-18 -45 -16 -81 2 -41 22 -69 71 -69 122 0 33 7 50 31 78 47 53 110 64 167 28z
m273 -278 c64 -34 87 -120 49 -182 -72 -119 -253 -55 -237 84 10 92 105 141
188 98z m177 -178 c17 -18 19 -26 10 -35 -9 -9 -6 -12 16 -12 39 0 86 -49 86
-90 0 -26 -13 -46 -72 -106 l-72 -74 -28 27 -28 27 56 57 c42 42 55 62 52 80
-2 18 -10 25 -30 27 -22 3 -40 -8 -83 -49 l-56 -53 -27 27 -27 27 85 85 c47
47 87 85 91 85 3 0 15 -10 27 -23z m409 -272 c48 -20 71 -41 94 -87 20 -40 24
-75 10 -97 -7 -11 -15 -11 -45 -1 -31 10 -35 15 -30 36 5 18 -1 31 -24 54 -34
33 -59 37 -102 15 -73 -38 -92 -115 -40 -167 32 -31 47 -33 64 -5 8 12 5 21
-9 37 -19 20 -18 21 6 45 l25 25 49 -50 49 -50 -54 -55 c-64 -65 -85 -68 -153
-26 -56 36 -87 92 -87 156 0 53 16 89 57 126 63 59 122 72 190 44z m223 -195
c11 -11 20 -24 20 -30 0 -14 -37 -50 -52 -50 -16 0 -48 31 -48 47 0 15 35 53
50 53 6 0 19 -9 30 -20z m-80 -85 l24 -26 -87 -87 -87 -87 -27 28 -28 27 85
85 c47 47 87 85 91 85 3 0 16 -11 29 -25z m163 -107 l-27 -28 24 -25 24 -25
-22 -22 -22 -22 -25 24 -25 24 -35 -34 c-38 -37 -44 -60 -19 -81 13 -11 13
-53 -1 -67 -9 -9 -68 33 -85 61 -29 47 -25 63 32 123 48 51 50 55 35 72 -16
17 -15 20 6 40 22 20 24 21 40 5 16 -16 19 -16 44 10 l27 27 28 -27 28 -27
-27 -28z m140 -140 l-48 -48 53 -52 52 -53 48 48 48 47 29 -30 29 -30 -124
-125 -125 -125 -30 30 -29 30 47 48 c26 26 47 52 47 58 0 12 -82 94 -95 94 -5
0 -31 -21 -57 -47 l-48 -47 -27 27 -28 27 125 125 124 125 28 -27 28 -27 -47
-48z m207 -263 l23 -25 -56 -59 c-58 -61 -66 -78 -45 -99 23 -23 50 -12 107
43 l58 55 26 -28 27 -28 -88 -87 -88 -88 -23 25 c-13 13 -20 29 -17 34 3 6 -7
13 -24 17 -39 9 -70 49 -70 92 0 29 11 46 67 104 36 38 69 69 73 69 4 0 17
-11 30 -25z m300 -130 l24 -26 -46 -46 -47 -46 32 -16 c44 -23 71 -72 63 -117
-9 -44 -71 -109 -115 -117 -59 -12 -131 36 -131 86 0 11 -5 17 -12 14 -7 -2
-23 5 -36 16 l-23 21 128 128 c70 70 130 128 134 128 3 0 16 -11 29 -25z"/>
<path d="M1442 3927 c-37 -39 -24 -87 23 -87 26 0 65 39 65 66 0 46 -53 59
-88 21z"/>
<path d="M2445 2970 c20 -21 31 -26 36 -18 13 20 -10 48 -38 48 l-27 0 29 -30z"/>
<path d="M2693 2708 c-12 -6 -27 -24 -34 -41 -11 -27 -10 -32 10 -48 31 -25
37 -24 72 10 33 33 36 52 13 75 -18 18 -30 19 -61 4z"/>
<path d="M4162 1207 c-26 -27 -28 -59 -6 -81 19 -20 34 -20 62 0 37 25 46 52
27 80 -20 31 -55 31 -83 1z"/>
</g>
</svg>
